<svg width="24" height="14" viewBox="0 0 24 14" fill="none" xmlns="http://www.w3.org/2000/svg">
<rect width="24" height="14" rx="2" fill="#1B5BA6"/>
<path d="M12.3353 5.9733C12.3242 6.7665 13.118 7.20917 13.716 7.47233C14.3303 7.74238 14.5367 7.91553 14.5344 8.15698C14.5297 8.52658 14.0443 8.68967 13.5899 8.69602C12.7973 8.70714 12.3365 8.50275 11.9701 8.34813L11.6846 9.55488C12.0522 9.70791 12.7328 9.84134 13.4387 9.84717C15.0954 9.84717 16.1794 9.10851 16.1853 7.96318C16.1917 6.50969 13.9593 6.4292 13.9745 5.7795C13.9798 5.58252 14.1879 5.37231 14.644 5.31883C14.8697 5.29182 15.4929 5.27117 16.1993 5.56505L16.4766 4.39748C16.0967 4.27252 15.6084 4.15285 15.0004 4.15285C13.441 4.15285 12.3441 4.90158 12.3353 5.9733ZM19.1411 4.25346C18.8386 4.25346 18.5836 4.41284 18.4699 4.65747L16.1032 9.76139H17.7588L18.0882 8.93906H20.1114L20.3025 9.76139H21.7617L20.4883 4.25346H19.1411ZM19.3727 5.74137L19.8505 7.80963H18.542L19.3727 5.74137ZM10.328 4.25346L9.02301 9.76139L10.6006 9.76139L11.905 4.25346H10.328ZM7.99414 4.25346L6.35204 8.00237L5.68782 4.81474C5.60985 4.45891 5.30207 4.25346 4.96028 4.25346H2.27583L2.23831 4.41337C2.78939 4.52139 3.41551 4.6956 3.79481 4.88198C4.02697 4.99583 4.09321 5.09538 4.16943 5.36595L5.42752 9.76139H7.09482L9.65088 4.25346H7.99414Z" fill="white"/>
</svg>
