<svg width="40" height="40" viewBox="0 0 40 40" fill="none" xmlns="http://www.w3.org/2000/svg">
<foreignObject x="-4" y="-4" width="48" height="48"><div xmlns="http://www.w3.org/1999/xhtml" style="backdrop-filter:blur(2px);clip-path:url(#bgblur_0_26283_1920_clip_path);height:100%;width:100%"></div></foreignObject><rect data-figma-bg-blur-radius="4" width="40" height="40" rx="6" fill="#005E7B"/>
<path d="M24.2051 11C25.2337 11.0002 26.0674 11.8346 26.0674 12.8633V15.0645H18.9072C17.5003 15.0645 16.415 16.2527 16.415 17.6475V24.7168H7.86328C6.83458 24.7168 6.00015 23.8832 6 22.8545V12.8633C6 11.8345 6.83449 11 7.86328 11H24.2051ZM9.27637 20.3828C8.91665 20.3828 8.625 20.6745 8.625 21.0342C8.62516 21.3938 8.91675 21.6855 9.27637 21.6855H14.1943C14.554 21.6855 14.8455 21.3938 14.8457 21.0342C14.8457 20.6745 14.5541 20.3828 14.1943 20.3828H9.27637ZM9.30176 13.4619C8.92787 13.4622 8.625 13.7657 8.625 14.1396V16.6924C8.625 17.0663 8.92787 17.3699 9.30176 17.3701H12.0947C12.4688 17.3701 12.7725 17.0665 12.7725 16.6924V14.1396C12.7725 13.7655 12.4688 13.4619 12.0947 13.4619H9.30176Z" fill="white"/>
<path d="M32.9683 16.1227C33.9268 16.1227 34.7034 16.8996 34.7037 17.858V27.3844C34.7035 28.3429 33.9269 29.1198 32.9683 29.1198H19.2085C18.2502 29.1195 17.4733 28.3428 17.4732 27.3844V17.858C17.4734 16.8997 18.2502 16.1229 19.2085 16.1227H32.9683ZM18.8277 27.3844C18.8278 27.5946 18.9984 27.765 19.2085 27.7653H32.9683C33.1787 27.7653 33.349 27.5947 33.3492 27.3844V22.3883H18.8277V27.3844ZM31.1294 24.1276C31.489 24.1278 31.7808 24.4194 31.7808 24.7789C31.7806 25.1384 31.4889 25.4301 31.1294 25.4303H26.2105C25.851 25.4301 25.5593 25.1384 25.5591 24.7789C25.5591 24.4193 25.8509 24.1277 26.2105 24.1276H31.1294ZM19.2085 17.4772C18.9985 17.4774 18.8279 17.6479 18.8277 17.858V19.6793H33.3492V17.858C33.3489 17.6478 33.1786 17.4772 32.9683 17.4772H19.2085Z" fill="white"/>
<defs>
<clipPath id="bgblur_0_26283_1920_clip_path" transform="translate(4 4)"><rect width="40" height="40" rx="6"/>
</clipPath></defs>
</svg>
