<svg width="24" height="14" viewBox="0 0 24 14" fill="none" xmlns="http://www.w3.org/2000/svg">
<rect width="24" height="14" rx="2" fill="black"/>
<path d="M14.3655 3.80646H10.3787V10.8525H14.3655V3.80646Z" fill="#FF5F00"/>
<path d="M10.632 7.32873C10.632 5.89712 11.3155 4.62734 12.366 3.80572C11.5939 3.20818 10.6194 2.84717 9.55622 2.84717C7.03759 2.84717 4.99991 4.85142 4.99991 7.32873C4.99991 9.80604 7.03759 11.8103 9.55622 11.8103C10.6194 11.8103 11.5939 11.4493 12.366 10.8517C11.3155 10.0426 10.632 8.76034 10.632 7.32873Z" fill="#EB001B"/>
<path d="M19.7446 7.32873C19.7446 9.80604 17.7069 11.8103 15.1883 11.8103C14.1251 11.8103 13.1506 11.4493 12.3785 10.8517C13.4417 10.0301 14.1125 8.76034 14.1125 7.32873C14.1125 5.89712 13.429 4.62734 12.3785 3.80572C13.1506 3.20818 14.1251 2.84717 15.1883 2.84717C17.7069 2.84717 19.7446 4.86387 19.7446 7.32873Z" fill="#F79E1B"/>
<path fill-rule="evenodd" clip-rule="evenodd" d="M19.7447 11.8783V11.2332H19.6112L19.455 11.694L19.2989 11.2332H19.1646V11.8783H19.2613V11.3899L19.4067 11.8092H19.5067L19.6517 11.3899V11.8783H19.7447ZM18.8858 11.8783V11.3438H19.0717V11.2332H18.6292V11.3438H18.8043V11.8783H18.8858Z" fill="#F79E1B"/>
</svg>
